<svg width="21" height="21" viewBox="0 0 21 21" fill="none" xmlns="http://www.w3.org/2000/svg">
<g clip-path="url(#clip0_1_2071)">
<path d="M20.5547 10.4165C20.5547 4.9165 16.0547 0.416504 10.5547 0.416504C5.05469 0.416504 0.554688 4.9165 0.554688 10.4165C0.554688 15.4165 4.17969 19.5415 8.92969 20.2915V13.2915H6.42969V10.4165H8.92969V8.1665C8.92969 5.6665 10.4297 4.2915 12.6797 4.2915C13.8047 4.2915 14.9297 4.5415 14.9297 4.5415V7.0415H13.6797C12.4297 7.0415 12.0547 7.7915 12.0547 8.5415V10.4165H14.8047L14.3047 13.2915H11.9297V20.4165C16.9297 19.6665 20.5547 15.4165 20.5547 10.4165Z" fill="white"/>
</g>
<defs>
<clipPath id="clip0_1_2071">
<rect width="20" height="20" fill="white" transform="translate(0.554688 0.416504)"/>
</clipPath>
</defs>
</svg>
