<svg width="168" height="48" viewBox="0 0 168 48" fill="none" xmlns="http://www.w3.org/2000/svg">
<path d="M28.4248 0.00799621C27.1029 0.0492877 25.8233 0.482545 24.7494 1.25243C24.325 1.58454 23.934 1.9571 23.5821 2.36484L21.5133 4.51051C18.3578 7.78179 12.3175 14.0411 4.36861 22.271L0 26.7987V28.9515C0 33.7588 0.0216625 42.363 0.0276799 42.3678C0.0336972 42.3726 0.0565632 42.3474 0.0854466 42.3162C0.11433 42.285 5.67197 36.4721 12.4355 29.4015L24.7326 16.5444V32.272V47.9996H35.4014V26.8371C35.4014 6.89736 35.4014 5.66254 35.3809 5.50174C35.3399 5.01495 35.2409 4.53477 35.0861 4.0713C34.7275 2.99282 34.0431 2.05135 33.1268 1.37603C31.7634 0.395395 30.1032 -0.0876498 28.4248 0.00799621V0.00799621Z" fill="white"/>
<path d="M66.4275 0.00825413C65.2215 0.0512116 64.0487 0.414095 63.0301 1.05949C62.739 1.25054 62.4677 1.47001 62.2202 1.71469C62.1299 1.8035 61.5161 2.43472 60.8554 3.12473C58.9419 5.11198 54.5974 9.61089 44.2018 20.3824L38.0039 26.8025L38.0159 33.4807C38.022 37.154 38.0268 40.6569 38.0268 41.2641C38.0268 41.8941 38.0268 42.3705 38.0364 42.3705C38.046 42.3705 43.6037 36.5588 50.3961 29.4558L62.7473 16.5411V22.0612V27.5813H73.4065V16.6959C73.4065 9.31089 73.4065 5.75881 73.3968 5.65561C73.3428 4.52437 72.9546 3.43429 72.2812 2.52232C71.4615 1.46308 70.3226 0.694146 69.0318 0.32866C68.1881 0.0761494 67.3075 -0.0321802 66.4275 0.00825413V0.00825413Z" fill="white"/>
<path d="M84.7301 15.2812C80.3976 15.2812 78.2314 19.1861 78.2314 22.7286C78.1712 23.3654 78.251 24.0075 78.4652 24.6103C78.6794 25.2132 79.0229 25.7622 79.4716 26.2191C79.9204 26.6761 80.4636 27.03 81.0636 27.2562C81.6635 27.4823 82.3057 27.5754 82.9454 27.5288C87.4861 27.5288 89.5308 23.8999 89.5308 20.2362C89.5308 17.4581 88.0228 15.2812 84.7301 15.2812ZM84.5712 17.2169C86.3211 17.2169 87.0323 18.4613 87.0323 20.2062C87.0323 22.695 85.9408 25.5799 83.2546 25.5799C81.5698 25.5799 80.7586 24.4399 80.7586 22.6422C80.7611 20.115 82.044 17.2169 84.5712 17.2169ZM91.2252 27.3607H95.8526C96.7688 27.416 97.6864 27.2771 98.5449 26.9531C99.4033 26.6292 100.183 26.1276 100.833 25.4814C101.483 24.8352 101.989 24.059 102.316 23.2039C102.643 22.3489 102.786 21.4343 102.733 20.5206C102.79 19.8367 102.697 19.1486 102.459 18.5047C102.221 17.8609 101.844 17.2769 101.355 16.7941C100.865 16.3113 100.276 15.9414 99.628 15.7105C98.9799 15.4796 98.2889 15.3933 97.6037 15.4577H93.7525L91.2252 27.3607ZM95.7828 17.3897H97.3076C99.1273 17.3897 100.15 18.4433 100.15 20.5518C100.15 23.5927 98.5207 25.4071 95.938 25.4071H94.0883L95.7828 17.3897ZM113.684 20.1498H108.316L108.887 17.4365H114.503L114.936 15.4493H106.913L104.385 27.3548H112.612L113.322 25.3507H107.206L107.883 22.155H113.255L113.684 20.1498ZM120.928 22.4994C122.245 22.4994 122.471 23.2074 122.193 24.5035C121.938 25.4318 121.821 26.3925 121.846 27.3548H124.169C124.183 26.3903 124.323 25.4318 124.586 24.5035C125.002 22.4814 124.082 21.8946 123.597 21.669C124.309 21.522 124.946 21.1295 125.396 20.5606C125.846 19.9917 126.081 19.2828 126.059 18.5585C126.059 16.6061 124.689 15.4481 122.419 15.4481H117.864L115.337 27.3535H117.763L118.786 22.4982L120.928 22.4994ZM119.853 17.3849H121.83C123.06 17.3849 123.563 17.9033 123.563 18.8021C123.563 20.0634 122.593 20.547 121.188 20.547H119.178L119.853 17.3849ZM129.472 27.356L130.268 23.5891C130.718 21.4638 131.187 19.3205 131.412 17.8169H131.447C131.655 19.1645 133.283 24.8503 134.011 27.356H136.992L139.54 15.4505H137.253L136.473 19.1141C136.057 21.0666 135.59 23.175 135.417 24.5407H135.382C135.157 23.0202 133.684 18.2165 132.855 15.4517H129.701L127.174 27.3572L129.472 27.356ZM143.071 15.4505L140.544 27.356H142.987L145.514 15.4505H143.071ZM145.587 27.3595H154.841L155.563 25.3555H149.058L156.51 17.4245L156.943 15.4541H148.105L147.655 17.4413H153.634L145.957 25.5799L145.587 27.3595ZM166.747 20.1594H161.379L161.951 17.4461H167.566L168 15.4589H159.976L157.449 27.3644H165.681L166.391 25.3603H160.27L160.946 22.1634H166.318L166.747 20.1594Z" fill="white"/>
<path d="M87.3361 41.265H82.9158L82.6751 42.4482H85.8174L85.8017 42.4938C85.401 44.3683 84.5537 46.0579 82.243 46.0579C80.3789 46.0579 79.5954 44.6443 79.5954 42.7866C79.5954 40.0986 81.0275 37.3181 83.7233 37.3181C84.0439 37.2758 84.3697 37.2984 84.6813 37.3845C84.993 37.4706 85.284 37.6184 85.5371 37.8191C85.7901 38.0198 86.0001 38.2693 86.1543 38.5527C86.3085 38.8361 86.4039 39.1476 86.4347 39.4685H87.7441C87.6984 37.5485 86.2494 36.1973 83.9087 36.1973C80.0732 36.1973 78.1934 39.6534 78.1934 42.9246C78.1934 45.3667 79.4414 47.1799 81.9061 47.1799C82.5834 47.2353 83.2627 47.0993 83.8661 46.7876C84.4696 46.4758 84.9727 46.0008 85.3179 45.4171C85.2102 45.9555 85.1299 46.499 85.0772 47.0455H86.1604L87.3361 41.265ZM95.2382 43.7683L95.7316 47.0395H97.0867L95.468 36.3497H93.8518L87.9054 47.0407H89.3375L91.109 43.7695L95.2382 43.7683ZM91.7108 42.6318C92.9744 40.3278 93.9601 38.4845 94.4378 37.5317H94.4535C94.5149 38.3921 94.7616 40.1118 95.131 42.6318H91.7108ZM107.485 47.0407H108.827L111.092 36.3497H109.046C107.228 39.5898 104.533 44.2699 104.055 45.3199H104.039C103.962 43.9375 103.392 39.5285 102.956 36.3497H100.922L98.6428 47.0407H99.9365L100.829 42.7554C101.215 40.9278 101.722 38.4545 101.892 37.3025H101.938C101.969 38.5625 102.724 44.3827 103.047 47.0407H104.28C106.113 43.7539 108.809 38.9609 109.563 37.3205H109.609C109.332 38.4569 108.87 40.5006 108.453 42.4974L107.485 47.0407ZM119.33 40.8354H114.324L115.046 37.4873H120.315L120.546 36.3509H113.955L111.69 47.0419H118.56L118.977 45.9055H113.261L114.077 41.973H119.084L119.33 40.8354ZM120.517 43.9387C120.563 45.8431 121.781 47.1955 124.26 47.1955C127.094 47.1955 128.172 45.6439 128.172 43.9699C128.172 42.5874 127.402 41.6502 125.184 40.8366C123.582 40.2222 123.243 39.7566 123.243 39.0245C123.243 38.0873 123.921 37.3037 125.261 37.3037C125.531 37.2609 125.807 37.2768 126.07 37.3505C126.333 37.4242 126.577 37.5538 126.785 37.7305C126.993 37.9072 127.16 38.1266 127.274 38.3739C127.389 38.6211 127.449 38.8901 127.449 39.1625H128.79C128.774 37.5653 127.757 36.1985 125.37 36.1985C122.982 36.1985 121.858 37.6121 121.858 39.1781C121.858 40.4226 122.567 41.175 124.554 41.9274C126.294 42.5874 126.756 43.1874 126.756 44.1547C126.756 45.4603 125.816 46.1059 124.4 46.1059C124.088 46.1476 123.771 46.1231 123.47 46.0342C123.169 45.9453 122.89 45.794 122.651 45.59C122.412 45.3861 122.22 45.1342 122.085 44.8509C121.951 44.5676 121.879 44.2591 121.872 43.9459L120.517 43.9387Z" fill="white"/>
</svg>
