<svg width="46" height="46" viewBox="0 0 46 46" fill="none" xmlns="http://www.w3.org/2000/svg">
<g clip-path="url(#clip0_1_810)">
<path d="M20.4325 36.6753C20.49 36.108 20.4226 35.5351 20.2352 34.9967C20.0478 34.4582 19.7449 33.9673 19.3477 33.5583C18.9505 33.1493 18.4686 32.8322 17.9359 32.6291C17.4032 32.4261 16.8324 32.342 16.2638 32.3829C16.3671 31.7797 16.3277 31.1607 16.1488 30.5754C15.9699 29.9902 15.6563 29.455 15.2334 29.0127C14.8104 28.5705 14.2897 28.2334 13.713 28.0286C13.1363 27.8237 12.5197 27.7568 11.9125 27.8332C11.9264 27.2986 11.8316 26.7668 11.6339 26.2699C11.4363 25.773 11.1398 25.3213 10.7625 24.9424C10.3938 24.5735 9.95598 24.2809 9.47415 24.0812C8.99231 23.8816 8.47587 23.7788 7.95431 23.7788C7.43275 23.7788 6.9163 23.8816 6.43447 24.0812C5.95264 24.2809 5.51486 24.5735 5.14615 24.9424L4.34403 25.7445C3.78263 26.3039 3.40176 27.0186 3.25056 27.7966C3.09936 28.5745 3.18478 29.3799 3.49578 30.1088C3.80678 30.8378 4.3291 31.4568 4.99533 31.8859C5.66156 32.3151 6.44112 32.5348 7.2334 32.5166C7.15767 33.1236 7.22501 33.74 7.43006 34.3164C7.63511 34.8928 7.97217 35.4132 8.41429 35.8361C8.85641 36.2589 9.39133 36.5724 9.97629 36.7516C10.5612 36.9308 11.18 36.9706 11.7831 36.8679C11.7447 37.4145 11.8213 37.9631 12.0079 38.4783C12.1946 38.9935 12.4872 39.4638 12.8669 39.8589C13.2466 40.254 13.7049 40.5652 14.2122 40.7722C14.7196 40.9793 15.2647 41.0777 15.8124 41.0611C15.8152 41.988 16.1853 42.8761 16.8417 43.5307C17.5024 44.1913 18.3985 44.5625 19.3328 44.5625C20.2672 44.5625 21.1633 44.1913 21.824 43.5307L22.6865 42.6682C23.1669 42.1914 23.4992 41.5859 23.6433 40.9246C23.7874 40.2632 23.7371 39.5744 23.4986 38.941C23.26 38.3076 22.8434 37.7567 22.2989 37.3547C21.7544 36.9527 21.1052 36.7167 20.4297 36.6753H20.4325Z" fill="white"/>
<path d="M44.5625 1.43751H30.0437C27.4911 1.43344 25.0109 2.28583 23 3.85826C20.9891 2.28583 18.5089 1.43344 15.9563 1.43751H1.4375C1.05625 1.43751 0.690618 1.58896 0.421034 1.85855C0.15145 2.12813 0 2.49377 0 2.87501L0 21.5625C0 21.9438 0.15145 22.3094 0.421034 22.579C0.690618 22.8486 1.05625 23 1.4375 23C1.81875 23 2.18438 22.8486 2.45397 22.579C2.72355 22.3094 2.875 21.9438 2.875 21.5625V4.31251H15.9563C17.7116 4.30987 19.4253 4.84682 20.8653 5.85064L12.9519 13.7655C12.3174 14.3955 11.9404 15.2393 11.8948 16.1323C11.8491 17.0252 12.1379 17.9031 12.7048 18.5945C13.2717 19.2859 14.076 19.7412 14.9606 19.8713C15.8452 20.0015 16.7466 19.7972 17.4886 19.2985L27.7035 12.489L41.0291 25.8132C41.226 26.0101 41.3822 26.2438 41.4888 26.5011C41.5953 26.7583 41.6502 27.0341 41.6502 27.3125C41.6502 27.591 41.5953 27.8667 41.4888 28.1239C41.3822 28.3812 41.226 28.6149 41.0291 28.8118C40.6254 29.1972 40.0887 29.4122 39.5305 29.4122C38.9724 29.4122 38.4357 29.1972 38.0319 28.8118L34.0788 24.8587C33.8077 24.5968 33.4446 24.452 33.0677 24.4552C32.6908 24.4585 32.3302 24.6097 32.0637 24.8762C31.7972 25.1427 31.646 25.5033 31.6427 25.8802C31.6394 26.2571 31.7843 26.6202 32.0462 26.8913L36.3946 31.2398C36.7923 31.6374 37.0157 32.1767 37.0157 32.7391C37.0157 33.3014 36.7923 33.8407 36.3946 34.2384C35.997 34.636 35.4577 34.8594 34.8953 34.8594C34.333 34.8594 33.7936 34.636 33.396 34.2384L29.0476 29.8899C28.7764 29.6281 28.4133 29.4832 28.0364 29.4865C27.6595 29.4898 27.299 29.6409 27.0324 29.9075C26.7659 30.174 26.6147 30.5345 26.6115 30.9114C26.6082 31.2883 26.7531 31.6515 27.0149 31.9226L30.2479 35.157C30.5443 35.4534 30.7462 35.8311 30.8281 36.2422C30.91 36.6534 30.8681 37.0796 30.7078 37.467C30.5475 37.8544 30.2759 38.1856 29.9275 38.4187C29.579 38.6517 29.1692 38.7763 28.75 38.7766C28.3688 38.7766 28.0031 38.928 27.7335 39.1976C27.4639 39.4672 27.3125 39.8328 27.3125 40.2141C27.3125 40.5953 27.4639 40.961 27.7335 41.2305C28.0031 41.5001 28.3688 41.6516 28.75 41.6516C29.9185 41.6538 31.0506 41.2446 31.9476 40.4958C32.8447 39.747 33.4496 38.7063 33.6562 37.5561C34.0603 37.6659 34.4766 37.7249 34.8953 37.7315C35.5512 37.7321 36.2008 37.6034 36.8069 37.3527C37.4131 37.102 37.9638 36.7344 38.4278 36.2707C38.8917 35.807 39.2597 35.2565 39.5107 34.6505C39.7617 34.0445 39.8908 33.395 39.8906 32.7391C39.8906 32.5824 39.8604 32.4315 39.8461 32.2776C41.0589 32.2094 42.2044 31.6978 43.0646 30.8401C43.9999 29.9026 44.5251 28.6324 44.5251 27.3082C44.5251 25.984 43.9999 24.7138 43.0646 23.7763L43.0459 23.7576L45.5961 21.1313C45.8569 20.8614 46.0019 20.5003 46 20.125V2.87501C46 2.49377 45.8485 2.12813 45.579 1.85855C45.3094 1.58896 44.9437 1.43751 44.5625 1.43751Z" fill="white"/>
</g>
<defs>
<clipPath id="clip0_1_810">
<rect width="46" height="46" fill="white"/>
</clipPath>
</defs>
</svg>
