<svg width="46" height="46" viewBox="0 0 46 46" fill="none" xmlns="http://www.w3.org/2000/svg">
<path d="M31.625 43.125H27.3125V38.8125H18.6875V43.125H14.375C13.5801 43.125 12.9375 43.7676 12.9375 44.5625C12.9375 45.3574 13.5801 46 14.375 46H31.625C32.4199 46 33.0625 45.3574 33.0625 44.5625C33.0625 43.7676 32.4199 43.125 31.625 43.125Z" fill="white"/>
<path d="M44.5625 4.3125H40.25V1.4375C40.25 0.644 39.606 0 38.8125 0H23C22.2065 0 21.5625 0.644 21.5625 1.4375V4.3125H1.4375C0.642563 4.3125 0 4.95506 0 5.75V34.5C0 35.2949 0.642563 35.9375 1.4375 35.9375H5.75V38.8125C5.75 39.606 6.394 40.25 7.1875 40.25H15.8125C16.606 40.25 17.25 39.606 17.25 38.8125V35.9375H44.5625C45.3574 35.9375 46 35.2949 46 34.5V5.75C46 4.95506 45.3574 4.3125 44.5625 4.3125ZM30.9062 17.25C32.0965 17.25 33.0625 18.216 33.0625 19.4062C33.0625 20.5965 32.0965 21.5625 30.9062 21.5625C29.716 21.5625 28.75 20.5965 28.75 19.4062C28.75 18.216 29.716 17.25 30.9062 17.25ZM11.5 37.375C10.7065 37.375 10.0625 36.731 10.0625 35.9375C10.0625 35.144 10.7065 34.5 11.5 34.5C12.2935 34.5 12.9375 35.144 12.9375 35.9375C12.9375 36.731 12.2935 37.375 11.5 37.375ZM43.125 33.0625H17.25V21.5625C17.25 20.769 16.606 20.125 15.8125 20.125H7.1875C6.394 20.125 5.75 20.769 5.75 21.5625V33.0625H2.875V7.1875H21.5625V23C21.5625 23.7935 22.2065 24.4375 23 24.4375H38.8125C39.606 24.4375 40.25 23.7935 40.25 23V7.1875H43.125V33.0625Z" fill="white"/>
</svg>
