<svg width="28" height="26" viewBox="0 0 28 26" fill="none" xmlns="http://www.w3.org/2000/svg">
    <g opacity="0.2">
        <path d="M1.4472 14.418C1.15612 14.0019 1 13.5063 1 12.9984C1 12.4906 1.15612 11.995 1.4472 11.5788C3.3348 8.90644 7.9824 3.39844 14.1996 3.39844C20.4168 3.39844 25.0644 8.90644 26.952 11.5788C27.2431 11.995 27.3992 12.4906 27.3992 12.9984C27.3992 13.5063 27.2431 14.0019 26.952 14.418C25.0644 17.0904 20.4168 22.5984 14.1996 22.5984C7.9824 22.5984 3.3348 17.0904 1.4472 14.418Z" stroke="white" stroke-miterlimit="10" stroke-linecap="square"/>
        <path d="M14.2023 17.8012C16.8533 17.8012 19.0023 15.6521 19.0023 13.0012C19.0023 10.3502 16.8533 8.20117 14.2023 8.20117C11.5514 8.20117 9.40234 10.3502 9.40234 13.0012C9.40234 15.6521 11.5514 17.8012 14.2023 17.8012Z" stroke="white" stroke-miterlimit="10" stroke-linecap="square"/>
        <path d="M2.20117 25L26.2012 1" stroke="white" stroke-miterlimit="10" stroke-linecap="square"/>
    </g>
</svg>
