<svg width="16" height="14" viewBox="0 0 16 14" fill="none" xmlns="http://www.w3.org/2000/svg">
<path d="M9.112 0.17056C9.01616 0.0845296 8.89746 0.0281007 8.77023 0.00809385C8.64301 -0.011913 8.51271 0.00535866 8.39509 0.0578211C8.27748 0.110284 8.17757 0.195691 8.10746 0.303719C8.03734 0.411748 8.00002 0.537772 8 0.666559V4.01856C5.15467 4.17323 0 5.45323 0 12.6666C0.000239546 12.8102 0.0468427 12.9499 0.132873 13.0648C0.218904 13.1798 0.339763 13.2639 0.477463 13.3047C0.615163 13.3455 0.762342 13.3407 0.897095 13.291C1.03185 13.2414 1.14697 13.1496 1.22533 13.0292C1.96032 11.899 2.96358 10.9682 4.14564 10.3198C5.32771 9.67141 6.65185 9.32561 8 9.31323V12.6666C8.00002 12.7953 8.03734 12.9214 8.10746 13.0294C8.17757 13.1374 8.27748 13.2228 8.39509 13.2753C8.51271 13.3278 8.64301 13.345 8.77023 13.325C8.89746 13.305 9.01616 13.2486 9.112 13.1626L15.7787 7.16256C15.8483 7.10004 15.904 7.02356 15.9421 6.93811C15.9802 6.85265 15.9999 6.76013 15.9999 6.66656C15.9999 6.57299 15.9802 6.48047 15.9421 6.39501C15.904 6.30956 15.8483 6.23308 15.7787 6.17056L9.112 0.17056Z" fill="#BA8926"/>
</svg>
