<svg width="88" height="88" viewBox="0 0 88 88" fill="none" xmlns="http://www.w3.org/2000/svg">
    <path opacity="0.2" d="M44 88C68.3005 88 88 68.3005 88 44C88 19.6995 68.3005 0 44 0C19.6995 0 0 19.6995 0 44C0 68.3005 19.6995 88 44 88Z" fill="#2BECC0"/>
    <path d="M61.9241 27.1113C61.6069 26.9516 61.2897 26.9516 60.9724 27.1911L37.6552 45.8729L27.0276 38.2086C26.7103 37.9691 26.3138 38.0489 25.9966 38.2884L21.2379 43.0787C20.9207 43.398 20.9207 43.877 21.2379 44.1964L37.1 61.7605C37.2586 61.9202 37.4966 62 37.6552 62C37.8931 62 38.0517 61.9202 38.2103 61.7605L66.7621 31.4225C66.9207 31.2628 67 31.0233 67 30.7838C67 30.5443 66.8414 30.3048 66.6828 30.2249L61.9241 27.1113Z" fill="#2BECC0"/>
</svg>
