<svg width="20" height="16" viewBox="0 0 20 16" fill="none" xmlns="http://www.w3.org/2000/svg">
<g clip-path="url(#clip0_160_5297)">
<path fill-rule="evenodd" clip-rule="evenodd" d="M19.2 1.894C18.483 2.22056 17.7201 2.43506 16.938 2.53C17.7661 2.01885 18.3813 1.22535 18.67 0.296002C17.899 0.765381 17.0521 1.09661 16.1672 1.2748C15.4508 0.489999 14.4264 0 13.2924 0C11.1184 0 9.3548 1.8084 9.3548 4.0392C9.3548 4.3556 9.3888 4.6632 9.4564 4.9592C6.1824 4.79 3.2804 3.184 1.3364 0.737201C0.985748 1.35722 0.802153 2.05769 0.803601 2.77C0.803601 4.1708 1.4988 5.4072 2.5556 6.132C1.9286 6.11126 1.31605 5.93828 0.770801 5.628V5.6776C0.770801 7.6352 2.12879 9.2684 3.93199 9.638C3.59435 9.73373 3.24495 9.78166 2.89399 9.7804C2.64039 9.7804 2.3924 9.756 2.1524 9.7084C2.654 11.3124 4.10759 12.4812 5.83199 12.5124C4.48399 13.5964 2.7848 14.2424 0.940002 14.2424C0.622002 14.2424 0.308 14.2236 0 14.1868C1.7436 15.3308 3.8148 16 6.0384 16C13.2844 16 17.246 9.846 17.246 4.508C17.246 4.3324 17.2424 4.1568 17.2356 3.9848C18.0098 3.41055 18.6751 2.70247 19.2 1.894Z" fill="#BA8926"/>
</g>
<defs>
<clipPath id="clip0_160_5297">
<rect width="19.2" height="16" fill="white"/>
</clipPath>
</defs>
</svg>
