<svg width="40" height="40" viewBox="0 0 40 40" fill="none" xmlns="http://www.w3.org/2000/svg">
    <path d="M38.0847 15.8847C37.8622 15.4591 37.7377 14.9942 37.7181 14.5163L37.5544 10.7448C37.5282 10.2079 37.2466 9.72334 36.7948 9.43524L33.6061 7.40546C33.2001 7.15009 32.8597 6.80307 32.6043 6.40366L30.5745 3.21492C30.2864 2.76313 29.8018 2.48158 29.265 2.45539L25.4869 2.2917C25.009 2.27205 24.5441 2.14765 24.1185 1.92503L20.7595 0.183336C20.5238 0.0589294 20.2619 0 20.0065 0C19.7512 0 19.4892 0.0589294 19.2535 0.183336L15.8946 1.92503C15.469 2.14765 15.004 2.27205 14.5261 2.2917L10.7481 2.45539C10.2112 2.48158 9.72662 2.76313 9.43852 3.21492L7.40873 6.40366C7.15343 6.80961 6.80634 7.15009 6.40693 7.40546L3.2182 9.43524C2.76641 9.72334 2.48485 10.2079 2.45866 10.7448L2.29497 14.5228C2.27533 15.0008 2.15092 15.4657 1.9283 15.8913L0.18661 19.2503C-0.0622032 19.7217 -0.0622032 20.2848 0.18661 20.7562L1.9283 24.1152C2.15092 24.5408 2.27533 25.0057 2.29497 25.4836L2.45866 29.2616C2.48485 29.7985 2.76641 30.2831 3.2182 30.5712L3.45391 30.7217L4.29202 31.2522L5.13013 31.7826L6.40693 32.5945C6.81289 32.8497 7.15337 33.1968 7.40873 33.5962L9.43852 36.785C9.72662 37.2367 10.2112 37.5183 10.7481 37.5445L14.5261 37.7082C15.0041 37.7278 15.469 37.8522 15.8946 38.0749L16.0975 38.1797L19.247 39.8166C19.4828 39.941 19.7447 40 20 40C20.2553 40 20.5172 39.9411 20.753 39.8166L22.9726 38.6642L24.1119 38.0749C24.197 38.0291 24.2822 37.9897 24.3738 37.957C24.7273 37.813 25.1006 37.7278 25.4803 37.7082L25.5655 37.7017L29.2584 37.538C29.7953 37.5118 30.2799 37.2302 30.5679 36.7783L32.5977 33.5897C32.8531 33.1838 33.2001 32.8432 33.5995 32.5878L34.3197 32.1295L36.7817 30.5647C37.2335 30.2765 37.5151 29.7921 37.5413 29.2551L37.705 25.4771C37.7246 24.9991 37.849 24.5343 38.0717 24.1087L39.8134 20.7497C40.0622 20.2782 40.0622 19.7151 39.8134 19.2437L38.0847 15.8847Z" fill="#BA8926"/>
    <path d="M17.5009 24.4834L13.3847 20.3672L11.6172 22.1347L17.5009 28.0184L29.6347 15.8847L27.8672 14.1172L17.5009 24.4834Z" fill="white"/>
</svg>
