<svg width="481" height="50" viewBox="0 0 481 50" fill="none" xmlns="http://www.w3.org/2000/svg">
<path d="M301.138 1.5H265.78C263.119 1.5 260.959 3.66 260.959 6.32143V41.6786C260.959 44.34 263.119 46.5 265.78 46.5H301.138C303.799 46.5 305.959 44.34 305.959 41.6786V6.32143C305.959 3.66 303.799 1.5 301.138 1.5ZM273.716 36.907C273.45 37.3677 273.012 37.7038 272.497 37.8412C271.983 37.9787 271.435 37.9062 270.975 37.6398C270.514 37.3734 270.178 36.9349 270.04 36.4207C269.903 35.9065 269.975 35.3588 270.242 34.898L271.679 32.4166C273.295 31.9248 274.621 32.3057 275.656 33.5609L273.716 36.907ZM287.668 31.4941H269.396C268.291 31.4941 267.388 30.5893 267.388 29.4852C267.388 28.3811 268.292 27.4762 269.396 27.4762H274.52L281.088 16.1057L279.03 12.5507C278.765 12.0896 278.693 11.5424 278.83 11.0286C278.968 10.5148 279.303 10.0763 279.763 9.80893C280.224 9.54397 280.771 9.47232 281.285 9.60964C281.798 9.74697 282.237 10.0821 282.504 10.5418L283.398 12.0879L284.291 10.5418C284.423 10.3136 284.599 10.1137 284.808 9.9534C285.017 9.7931 285.256 9.67557 285.511 9.60751C285.765 9.53946 286.031 9.52222 286.292 9.55678C286.553 9.59134 286.805 9.67702 287.033 9.80893C287.261 9.94084 287.461 10.1164 287.622 10.3256C287.782 10.5347 287.899 10.7734 287.968 11.028C288.036 11.2826 288.053 11.5481 288.018 11.8094C287.984 12.0707 287.898 12.3226 287.766 12.5507L279.149 27.4779H285.386C287.414 27.4779 288.55 29.858 287.666 31.4957L287.668 31.4941ZM297.521 31.4941H294.608L296.576 34.8996C297.129 35.8639 296.797 37.0902 295.844 37.6414C294.879 38.1943 293.653 37.8616 293.102 36.9086C289.798 31.1936 287.326 26.8945 285.669 24.0418C283.991 21.128 285.187 18.2159 286.382 17.2323C287.699 19.5129 289.667 22.928 292.298 27.4779H297.521C298.054 27.4779 298.565 27.6895 298.942 28.0663C299.319 28.443 299.53 28.954 299.53 29.4868C299.53 30.0196 299.319 30.5306 298.942 30.9073C298.565 31.2841 298.054 31.4957 297.521 31.4957V31.4941Z" fill="#BA8926"/>
<path d="M104.83 6.00141V38.9014L112.17 41.2653V13.6695C112.17 12.3716 112.742 11.5082 113.664 11.8077C114.851 12.1522 115.086 13.3391 115.086 14.6356V25.6506C119.665 27.8851 123.266 25.6435 123.266 19.7402C123.266 13.6695 121.157 10.9724 114.947 8.81245C112.493 7.96871 107.951 6.58499 104.839 6L104.83 6.00141ZM113.562 36.4546L125.368 32.1839C126.707 31.7016 126.914 31.0139 125.83 30.6539C124.731 30.2953 122.76 30.3896 121.404 30.8803L113.524 33.6928V29.2168L113.97 29.0635C113.97 29.0635 116.225 28.2746 119.433 27.9062C122.612 27.5701 126.531 27.9638 129.629 29.1436C133.094 30.2728 133.46 31.9055 132.581 33.0347C131.709 34.154 129.542 34.9753 129.542 34.9753L113.524 40.797V36.4898L113.562 36.4546ZM91.3771 36.0088C87.8095 34.9837 87.2246 32.8814 88.8417 31.6495C90.3436 30.5583 92.8846 29.6808 92.8846 29.6808L103.416 25.9079V30.2433L95.8728 33.0051C94.5468 33.5114 94.3274 34.192 95.4271 34.5506C96.5253 34.9176 98.494 34.8374 99.8145 34.3312L103.447 33.0051V36.8933C103.227 36.9454 102.97 36.9735 102.714 37.0326C99.0818 37.6499 95.2288 37.3996 91.3982 36.1326L91.3771 36.0088Z" fill="#BA8926"/>
<path d="M444.364 35.5368C444.364 36.7119 445.311 37.6712 446.477 37.6712H448.892V43.7178C448.892 45.2495 450.107 46.5 451.599 46.5C453.097 46.5 454.307 45.2545 454.307 43.7178V37.6661H458.522V43.7127C458.522 45.2445 459.737 46.495 461.23 46.495C462.728 46.495 463.938 45.2495 463.938 43.7127V37.6661H466.353C467.518 37.6661 468.466 36.7069 468.466 35.5317V15.6844H444.364V35.5368V35.5368ZM462.073 5.39915L464.3 2.13479C464.429 1.94395 464.399 1.68782 464.226 1.56227C464.052 1.44174 463.804 1.502 463.675 1.69284L461.364 5.08778C459.842 4.48011 458.146 4.14363 456.365 4.14363C454.585 4.14363 452.889 4.48011 451.366 5.08778L449.055 1.69786C448.926 1.50702 448.678 1.44174 448.505 1.56729C448.331 1.68782 448.301 1.93893 448.43 2.13981L450.657 5.40417C447.116 7.07151 444.637 10.2304 444.319 13.9217H468.421C468.094 10.2254 465.609 7.06649 462.073 5.39915V5.39915ZM451.277 10.5468C451.013 10.5468 450.755 10.4676 450.536 10.3191C450.317 10.1707 450.146 9.95969 450.045 9.71284C449.944 9.46599 449.917 9.19436 449.969 8.9323C450.02 8.67024 450.147 8.42953 450.334 8.2406C450.52 8.05166 450.758 7.923 451.017 7.87087C451.276 7.81874 451.544 7.8455 451.788 7.94775C452.031 8.05 452.24 8.22315 452.386 8.44531C452.533 8.66747 452.611 8.92866 452.611 9.19586C452.61 9.55386 452.469 9.89694 452.219 10.1501C451.969 10.4032 451.631 10.5459 451.277 10.5468V10.5468ZM461.612 10.5468C461.348 10.5468 461.09 10.4676 460.871 10.3191C460.652 10.1707 460.481 9.95969 460.38 9.71284C460.279 9.46599 460.252 9.19436 460.304 8.9323C460.355 8.67024 460.482 8.42953 460.669 8.2406C460.855 8.05166 461.093 7.923 461.352 7.87087C461.611 7.81874 461.879 7.8455 462.123 7.94775C462.366 8.05 462.575 8.22315 462.721 8.44531C462.868 8.66747 462.946 8.92866 462.946 9.19586C462.945 9.55386 462.804 9.89694 462.554 10.1501C462.304 10.4032 461.966 10.5459 461.612 10.5468ZM472.691 15.6041C471.193 15.6041 469.983 16.8495 469.983 18.3863V29.2541C469.983 30.7859 471.198 32.0364 472.691 32.0364C474.189 32.0364 475.399 30.7909 475.399 29.2541V18.3813C475.404 16.8445 474.194 15.6041 472.691 15.6041ZM440.03 15.6041C438.532 15.6041 437.322 16.8495 437.322 18.3863V29.2541C437.322 30.7859 438.537 32.0364 440.03 32.0364C441.527 32.0364 442.737 30.7909 442.737 29.2541V18.3813C442.737 16.8445 441.522 15.6041 440.03 15.6041Z" fill="#BA8926"/>
<path d="M369.864 1.5C358.051 1.5 348.361 10.6108 347.445 22.1909L359.501 27.1787C360.558 26.4574 361.809 26.0721 363.089 26.0735C363.206 26.0735 363.324 26.0805 363.441 26.0805L368.803 18.3168V18.2071C368.803 13.5273 372.604 9.72631 377.284 9.72631C381.963 9.72631 385.771 13.5343 385.771 18.2142C385.768 20.4637 384.873 22.6202 383.282 24.2102C381.69 25.8002 379.533 26.6939 377.284 26.695H377.094L369.447 32.1511C369.447 32.2537 369.454 32.3493 369.454 32.452C369.454 35.9675 366.612 38.8165 363.096 38.8165C360.035 38.8165 357.442 36.6186 356.849 33.7049L348.222 30.1304C350.895 39.5787 359.56 46.5 369.864 46.5C382.285 46.5 392.357 36.4302 392.357 24.0007C392.357 11.5712 382.287 1.50141 369.864 1.50141V1.5ZM361.537 35.6441L358.775 34.5008C359.284 35.5575 360.162 36.3914 361.243 36.845C362.414 37.3296 363.728 37.3304 364.9 36.8472C366.071 36.3641 367.002 35.4364 367.491 34.2674C367.733 33.6888 367.858 33.068 367.86 32.4408C367.861 31.8135 367.738 31.1922 367.498 30.6127C367.261 30.0301 366.91 29.5007 366.466 29.0554C366.022 28.6102 365.494 28.258 364.912 28.0196C363.791 27.5513 362.533 27.5302 361.396 27.9606L364.245 29.1404C366.04 29.8941 366.889 31.9528 366.142 33.7471C365.396 35.5414 363.33 36.3908 361.535 35.6441H361.537ZM382.938 18.1987C382.936 16.7007 382.341 15.2645 381.283 14.2046C380.224 13.1447 378.789 12.5477 377.291 12.5443C375.791 12.5443 374.353 13.1401 373.292 14.2005C372.232 15.2609 371.636 16.6991 371.636 18.1987C371.636 19.6983 372.232 21.1365 373.292 22.1969C374.353 23.2573 375.791 23.8531 377.291 23.8531C378.789 23.8508 380.225 23.2542 381.284 22.194C382.343 21.1339 382.938 19.697 382.938 18.1987V18.1987ZM373.058 18.1917C373.058 15.8405 374.955 13.9435 377.299 13.9435C379.643 13.9435 381.554 15.8405 381.554 18.1917C381.554 20.5358 379.643 22.4398 377.299 22.4398C374.955 22.4398 373.058 20.5358 373.058 18.1917V18.1917Z" fill="#BA8926"/>
<path d="M180.992 3.01555C178.42 3.01555 177.473 3.96428 177.473 6.53862V37.5901C177.471 37.8612 177.484 38.1321 177.51 38.4019C177.568 38.9644 177.58 39.5082 178.103 40.1269C178.153 40.1888 178.686 40.5863 178.686 40.5863C178.973 40.7269 179.17 40.83 179.492 40.9613L195.12 47.5068C195.932 47.8799 196.271 48.0243 196.86 48.0131H196.864C197.452 48.0243 197.792 47.8799 198.604 47.5068L214.232 40.9594C214.554 40.8282 214.751 40.7269 215.038 40.5844C215.038 40.5844 215.57 40.1888 215.621 40.1288C216.146 39.5101 216.155 38.9644 216.213 38.4038C216.24 38.1334 216.252 37.8618 216.251 37.5901V6.53862C216.251 3.96428 215.302 3.01367 212.73 3.01367L180.992 3.01555ZM206.053 8.84672H207.328C209.462 8.84672 210.493 9.88358 210.493 12.0267V15.5516H207.917V12.1767C207.917 11.4848 207.598 11.1642 206.936 11.1642H206.495C205.807 11.1642 205.489 11.4829 205.489 12.1748V23.0684C205.489 23.7603 205.807 24.0809 206.495 24.0809H206.987C207.649 24.0809 207.967 23.7603 207.967 23.0684V19.176H210.542V23.194C210.542 25.339 209.488 26.4002 207.354 26.4002H206.053C203.919 26.4002 202.866 25.339 202.866 23.194V12.0529C202.866 9.90795 203.919 8.84859 206.053 8.84859V8.84672ZM183.205 8.99672H189.043V11.3854H185.83V16.266H188.919V18.6566H185.83V23.8578H189.092V26.2484H183.205V8.99672ZM190.359 8.99672H194.481C196.614 8.99672 197.668 10.0542 197.668 12.1992V16.7835C197.668 18.9285 196.614 19.9897 194.481 19.9897H192.983V26.2484H190.358L190.359 8.99672ZM198.853 8.99672H201.478V26.2484H198.853V8.99672ZM192.984 11.3123V17.6722H194.063C194.726 17.6722 195.043 17.3516 195.043 16.6597V12.3248C195.043 11.6348 194.724 11.3123 194.063 11.3123H192.984ZM185.972 30.3377C186.35 30.3392 186.726 30.4077 187.08 30.5402C187.415 30.6751 187.726 30.8645 187.999 31.1008L187.151 32.1245C186.978 31.975 186.783 31.8518 186.574 31.7589C186.358 31.6703 186.126 31.6269 185.893 31.6314C185.712 31.6299 185.533 31.6683 185.368 31.7439C185.209 31.8169 185.067 31.9208 184.948 32.0495C184.827 32.1827 184.731 32.3372 184.665 32.5051C184.595 32.6836 184.559 32.8739 184.56 33.0658V33.0808C184.559 33.2794 184.594 33.4765 184.665 33.662C184.73 33.8341 184.83 33.9906 184.96 34.1214C185.087 34.2497 185.239 34.3516 185.406 34.4214C185.586 34.4954 185.779 34.5324 185.974 34.5301C186.267 34.542 186.558 34.4663 186.808 34.3126V33.677H185.781V32.6176H188.179V34.9707C187.882 35.2111 187.551 35.4051 187.196 35.5464C186.789 35.7061 186.354 35.7844 185.916 35.777C185.53 35.7814 185.147 35.7133 184.787 35.5764C184.455 35.4489 184.15 35.2579 183.891 35.0139C183.636 34.7731 183.433 34.4828 183.295 34.1608C183.148 33.8171 183.075 33.4468 183.079 33.0733V33.0583C183.075 32.6913 183.148 32.3275 183.291 31.9895C183.428 31.667 183.627 31.3741 183.876 31.127C184.13 30.8762 184.432 30.6791 184.765 30.5477C185.121 30.4063 185.502 30.3357 185.886 30.3396C185.914 30.3392 185.942 30.3392 185.97 30.3396L185.972 30.3377ZM208.402 30.3527C208.792 30.3517 209.179 30.4111 209.55 30.5289C209.895 30.6433 210.217 30.8193 210.5 31.0483L209.777 32.072C209.552 31.91 209.306 31.7806 209.045 31.6877C208.812 31.6034 208.566 31.559 208.318 31.5564C208.181 31.5469 208.044 31.5811 207.928 31.6539C207.888 31.6798 207.855 31.715 207.833 31.7566C207.81 31.7981 207.797 31.8446 207.797 31.892V31.907C207.795 31.9624 207.81 32.0169 207.838 32.0645C207.874 32.1174 207.923 32.16 207.98 32.1883C208.069 32.2345 208.161 32.2722 208.256 32.3008C208.372 32.3383 208.519 32.3758 208.699 32.4152C208.972 32.4736 209.241 32.55 209.505 32.6439C209.724 32.7201 209.931 32.8275 210.12 32.9626C210.283 33.0799 210.416 33.2341 210.508 33.4126C210.601 33.6098 210.647 33.8263 210.641 34.0445V34.0595C210.646 34.3067 210.594 34.5517 210.489 34.7757C210.388 34.9839 210.241 35.1666 210.06 35.3101C209.863 35.4643 209.638 35.5789 209.398 35.6476C209.117 35.7273 208.827 35.7658 208.535 35.762C208.083 35.7644 207.633 35.6909 207.204 35.5445C206.794 35.4052 206.416 35.1846 206.092 34.8957L206.899 33.932C207.418 34.3501 207.982 34.5601 208.586 34.5601C208.739 34.5691 208.892 34.5367 209.029 34.4664C209.076 34.4405 209.116 34.4019 209.143 34.3549C209.17 34.3079 209.184 34.2544 209.182 34.2001V34.1851C209.183 34.1345 209.17 34.0846 209.145 34.0408C209.11 33.989 209.063 33.9465 209.008 33.917C208.923 33.8691 208.833 33.8301 208.74 33.8008C208.596 33.7549 208.45 33.7161 208.303 33.6845C208.042 33.6249 207.784 33.5542 207.529 33.4726C207.308 33.4035 207.099 33.3024 206.908 33.1726C206.736 33.0549 206.593 32.899 206.492 32.717C206.383 32.5089 206.331 32.2765 206.338 32.042V32.027C206.335 31.7953 206.383 31.5658 206.477 31.3539C206.569 31.149 206.706 30.9676 206.878 30.8233C207.066 30.6675 207.283 30.5497 207.515 30.4764C207.787 30.3906 208.071 30.3488 208.355 30.3527C208.371 30.3526 208.387 30.3526 208.402 30.3527V30.3527ZM190.856 30.3996H192.248L194.466 35.6682H192.919L192.538 34.7326H190.528L190.157 35.6664H188.638L190.856 30.3996ZM194.976 30.4371H196.502L197.745 32.462L198.988 30.4371H200.514V35.6682H199.078V32.6645L197.745 34.7101H197.715L196.389 32.6795V35.6664H194.976V30.4371ZM201.48 30.4371H205.67V31.6708H202.909V32.462H205.41V33.6058H202.909V34.4345H205.708V35.6682H201.48V30.4371ZM191.543 32.1189L190.952 33.6058H192.122L191.543 32.1189ZM189.396 41.85H204.422L196.753 44.3775L189.396 41.85Z" fill="#BA8926"/>
<path d="M9.19221 40.9326C13.2856 44.5304 18.5516 46.5101 24.0014 46.5C29.677 46.5 34.8563 44.4061 38.8177 40.9326C42.3333 37.3509 30.7247 24.6075 24.0014 19.5309C17.2852 24.6061 5.66956 37.3509 9.19221 40.9326V40.9326ZM30.1172 13.9298C34.8042 19.4817 44.1502 33.2643 41.5134 38.1356C44.7491 34.1385 46.5104 29.1496 46.5014 24.007C46.5014 17.745 43.9462 12.0764 39.8077 8.0039C39.8077 8.0039 39.7556 7.9589 39.6544 7.92374C39.4844 7.86525 39.3053 7.83809 39.1256 7.84359C38.0217 7.84359 35.4061 8.65499 30.1186 13.9298H30.1172ZM8.34846 7.92374C8.24721 7.9589 8.19518 8.0039 8.18674 8.0039C6.06461 10.0931 4.38025 12.5845 3.23213 15.3322C2.08401 18.08 1.49517 21.029 1.50003 24.007C1.50003 29.3606 3.36753 34.2684 6.48799 38.1272C3.86675 33.2503 13.1972 19.4733 17.8913 13.9284C12.6038 8.64656 9.98112 7.84218 8.87581 7.84218C8.69525 7.83366 8.51497 7.86387 8.34706 7.93078L8.34846 7.92374ZM24.0014 8.15859C24.0014 8.15859 18.4791 4.92843 14.1647 4.77375C12.473 4.71609 11.4408 5.32359 11.3142 5.41078C15.3361 2.70937 19.6125 1.5 23.9705 1.5H24C28.3805 1.5 32.6344 2.70937 36.6858 5.41078C36.5606 5.32218 35.5341 4.71468 33.8353 4.77375C29.5209 4.92703 23.9986 8.15015 23.9986 8.15015L24.0014 8.15859Z" fill="#BA8926"/>
</svg>
