<svg width="211" height="30" viewBox="0 0 211 30" fill="none" xmlns="http://www.w3.org/2000/svg">
    <path fill-rule="evenodd" clip-rule="evenodd" d="M26.3663 1.50391L27.8398 0H18.4251L6.85454 11.827V0H0V29.987V30H6.85454V21.4503L9.64069 18.6033L10.2362 17.9904L19.2814 29.9957L19.2857 30H27.8702L15.0869 13.0354L26.3663 1.50391ZM55.112 14.9978C55.1051 11.0237 53.5219 7.21461 50.7097 4.40652C47.8975 1.59842 44.0862 0.0206765 40.112 0.0195312C37.1493 0.0224829 34.2538 0.902729 31.7908 2.54925C29.3277 4.19577 27.4074 6.53481 26.272 9.27136C25.1367 12.0079 24.8372 15.0194 25.4112 17.9259C25.9853 20.8325 27.4072 23.504 29.4977 25.6034C31.3594 27.5173 33.7133 28.8801 36.3001 29.5414C37.544 29.8504 38.8216 30.0037 40.1033 29.9978C43.8984 29.9973 47.5522 28.5583 50.3285 25.9708C53.1047 23.3833 54.797 19.8397 55.0642 16.054C55.0961 15.7063 55.112 15.3542 55.112 14.9978ZM34.3702 9.22991C35.1157 8.46448 36.0092 7.85891 36.9964 7.45014C37.9836 7.04137 39.0437 6.83797 40.112 6.85233C40.4973 6.85543 40.8821 6.88302 41.2639 6.93492C42.8081 7.15575 44.2563 7.81583 45.436 8.83653C46.6157 9.85723 47.4771 11.1955 47.9176 12.692C48.3581 14.1885 48.3592 15.78 47.9207 17.2771C47.4822 18.7741 46.6225 20.1136 45.4442 21.1359C44.2659 22.1581 42.8186 22.8202 41.2746 23.043C39.7306 23.2659 38.1552 23.0403 36.7358 22.393C35.3165 21.7457 34.1131 20.7041 33.2691 19.3922C32.4251 18.0803 31.976 16.5534 31.9752 14.9935C31.9775 14.6301 32.0022 14.2672 32.0491 13.9068C32.2586 12.1263 33.0789 10.4735 34.3702 9.22991ZM74.6142 18.4294L83.8202 0H90.6834V29.9957V30H89.4316H83.8245V16.4126L82.5771 18.8119L76.7527 30H75.6226H72.4713L65.3994 16.4126V30H55.9326V23.1411H58.5406V0H65.4038L74.6142 18.4294ZM119.269 2.70037C118.425 1.82878 117.41 1.13958 116.289 0.675332C115.168 0.21108 113.963 -0.0183693 112.749 0.00114842H94.1113V29.9925H100.97V6.86003H112.758C113.384 6.86003 113.984 7.10869 114.427 7.55131C114.87 7.99393 115.118 8.59426 115.118 9.22022C115.118 9.84618 114.87 10.4465 114.427 10.8891C113.984 11.3317 113.384 11.5804 112.758 11.5804H104.83L101.831 18.4393H112.762C115.115 18.4396 117.379 17.5389 119.089 15.9222C120.799 14.3055 121.824 12.0955 121.955 9.74615C121.955 9.65758 121.962 9.57009 121.968 9.48207C121.975 9.39298 121.982 9.30335 121.982 9.21152C121.996 7.9988 121.763 6.79585 121.297 5.67629C120.83 4.55673 120.14 3.5441 119.269 2.70037ZM125.4 30V0H151.115V6.19386V6.85454H132.311H132.259V11.5706H146.829V17.7644V18.4251H132.311H132.259V23.1411H151.115V29.335V30H149.867H125.4ZM153.677 0V6.85454H164.174V30H169.781H171.033V29.335V6.85454H171.085H181.534V6.19386V0H153.677ZM191.82 6.85454V11.5706H206.39V17.7644V18.4251H191.872H191.82V23.1411H210.675V29.335V30H209.428H184.961V0H210.675V6.19386V6.85454H191.872H191.82Z" fill="white"/>
</svg>
