<svg width="46" height="46" viewBox="0 0 46 46" fill="none" xmlns="http://www.w3.org/2000/svg">
<g clip-path="url(#clip0_1_815)">
<path d="M17.25 8.625C16.8688 8.625 16.5031 8.77645 16.2335 9.04603C15.964 9.31562 15.8125 9.68125 15.8125 10.0625V21.5625H18.6875V10.0625C18.6875 9.68125 18.536 9.31562 18.2665 9.04603C17.9969 8.77645 17.6312 8.625 17.25 8.625Z" fill="white"/>
<path d="M32.2575 27.8286C32.082 26.413 31.4868 25.0824 30.5487 24.0079C29.6105 22.9334 28.3722 22.1643 26.9932 21.7996C25.6141 21.4348 24.1575 21.4912 22.8108 21.9613C21.4641 22.4314 20.2889 23.2939 19.4364 24.4376H15.0636C14.2124 23.296 13.0395 22.4348 11.6955 21.9644C10.3514 21.494 8.89751 21.4359 7.52022 21.7975C6.14292 22.1591 4.90507 22.924 3.96548 23.994C3.02589 25.064 2.42741 26.3903 2.24681 27.8028C0 41.5079 0 41.5251 0 41.6876C0 42.8313 0.454351 43.9282 1.2631 44.737C2.07185 45.5457 3.16875 46.0001 4.3125 46.0001C5.19726 46.0014 6.06046 45.7271 6.78212 45.2152L14.0976 40.2501H20.4024L27.692 45.198C28.3368 45.6555 29.095 45.9269 29.8837 45.9826C30.6723 46.0383 31.4612 45.8761 32.1639 45.5138C32.8666 45.1515 33.4562 44.6029 33.8682 43.9281C34.2802 43.2533 34.4988 42.4782 34.5 41.6876C34.5 41.5251 34.5 41.5079 32.2575 27.8286ZM9.34375 31.6251C8.77513 31.6251 8.21928 31.4565 7.74649 31.1406C7.27369 30.8246 6.9052 30.3756 6.6876 29.8503C6.46999 29.325 6.41306 28.7469 6.52399 28.1892C6.63492 27.6315 6.90874 27.1192 7.31082 26.7171C7.71289 26.3151 8.22517 26.0413 8.78287 25.9303C9.34056 25.8194 9.91863 25.8763 10.444 26.0939C10.9693 26.3115 11.4183 26.68 11.7342 27.1528C12.0501 27.6256 12.2188 28.1815 12.2188 28.7501C12.2188 29.5126 11.9158 30.2438 11.3767 30.783C10.8375 31.3222 10.1062 31.6251 9.34375 31.6251ZM25.1562 31.6251C24.5876 31.6251 24.0318 31.4565 23.559 31.1406C23.0862 30.8246 22.7177 30.3756 22.5001 29.8503C22.2825 29.325 22.2256 28.7469 22.3365 28.1892C22.4474 27.6315 22.7212 27.1192 23.1233 26.7171C23.5254 26.3151 24.0377 26.0413 24.5954 25.9303C25.1531 25.8194 25.7311 25.8763 26.2565 26.0939C26.7818 26.3115 27.2308 26.68 27.5467 27.1528C27.8626 27.6256 28.0312 28.1815 28.0312 28.7501C28.0312 29.5126 27.7283 30.2438 27.1892 30.783C26.65 31.3222 25.9187 31.6251 25.1562 31.6251Z" fill="white"/>
<path d="M44.5625 0H24.4375C24.0563 0 23.6906 0.15145 23.421 0.421034C23.1514 0.690618 23 1.05625 23 1.4375V18.9362C23.7074 18.7741 24.4305 18.6906 25.1562 18.6875C26.6825 18.6905 28.1879 19.0417 29.558 19.7143C30.9281 20.3868 32.1266 21.3631 33.0625 22.5688V17.25H35.9375V32.5148C37.375 41.2548 37.375 41.3324 37.375 41.6875C37.3697 43.2479 36.8515 44.7632 35.9001 46H44.5625C44.9437 46 45.3094 45.8485 45.579 45.579C45.8486 45.3094 46 44.9437 46 44.5625V1.4375C46 1.05625 45.8486 0.690618 45.579 0.421034C45.3094 0.15145 44.9437 0 44.5625 0V0ZM34.5 14.375C33.9314 14.375 33.3755 14.2064 32.9027 13.8905C32.4299 13.5746 32.0614 13.1256 31.8438 12.6002C31.6262 12.0749 31.5693 11.4968 31.6802 10.9391C31.7912 10.3814 32.065 9.86914 32.4671 9.46707C32.8691 9.06499 33.3814 8.79117 33.9391 8.68024C34.4968 8.56931 35.0749 8.62624 35.6002 8.84385C36.1256 9.06145 36.5746 9.42994 36.8905 9.90274C37.2064 10.3755 37.375 10.9314 37.375 11.5C37.375 12.2625 37.0721 12.9938 36.5329 13.5329C35.9938 14.0721 35.2625 14.375 34.5 14.375Z" fill="white"/>
</g>
<defs>
<clipPath id="clip0_1_815">
<rect width="46" height="46" fill="white"/>
</clipPath>
</defs>
</svg>
