<svg width="48" height="48" viewBox="0 0 48 48" fill="none" xmlns="http://www.w3.org/2000/svg">
<path d="M46.8342 21.1738L43.5606 17.9002C42.783 17.1226 42.147 15.5836 42.147 14.4856V9.85656C42.147 7.65755 40.3482 5.85694 38.1467 5.85694H33.5153C32.4155 5.85694 30.8783 5.21973 30.1013 4.44273L26.8277 1.16911C25.2737 -0.389702 22.7266 -0.389702 21.172 1.16911L17.8984 4.44273C17.1208 5.21973 15.5818 5.85694 14.4838 5.85694H9.85536C7.65575 5.85694 5.85514 7.65755 5.85514 9.85656V14.4856C5.85514 15.5836 5.21853 17.1226 4.44093 17.9002L1.16731 21.1738C-0.389102 22.7284 -0.389102 25.2749 1.16731 26.8301L4.44093 30.1031C5.21853 30.8807 5.85514 32.4197 5.85514 33.5171V38.1467C5.85514 40.3457 7.65575 42.147 9.85536 42.147H14.4838C15.5836 42.147 17.1208 42.7836 17.8984 43.5606L21.172 46.8336C22.7266 48.3888 25.2737 48.3888 26.8277 46.8336L30.1013 43.5606C30.8789 42.783 32.4155 42.147 33.5153 42.147H38.1467C40.3482 42.147 42.147 40.3457 42.147 38.1467V33.5171C42.147 32.4155 42.7836 30.8801 43.5606 30.1031L46.8342 26.8301C48.3882 25.2749 48.3882 22.7278 46.8342 21.1738ZM21.9994 18.001C21.7367 18.0009 21.4766 18.0526 21.2339 18.1531C20.9912 18.2536 20.7707 18.401 20.585 18.5868C20.3992 18.7726 20.252 18.9931 20.1515 19.2358C20.0511 19.4786 19.9995 19.7387 19.9996 20.0014C19.9995 20.2641 20.0511 20.5242 20.1515 20.7669C20.252 21.0096 20.3993 21.2301 20.585 21.4159C20.7707 21.6016 20.9913 21.7489 21.234 21.8493C21.4767 21.9498 21.7368 22.0014 21.9994 22.0012H25.9997C29.3117 22.0012 31.9991 24.6887 31.9991 28.0013H31.9973C31.9973 31.3139 29.3111 33.9971 25.9997 34.0013V38.0015H21.9994V34.0013C18.6868 34.0013 15.9994 31.3139 15.9994 28.0013H19.9996C19.9995 28.2639 20.0511 28.5241 20.1515 28.7668C20.252 29.0095 20.3993 29.23 20.585 29.4157C20.7707 29.6014 20.9913 29.7487 21.234 29.8492C21.4767 29.9496 21.7368 30.0012 21.9994 30.0011H25.9955C26.2582 30.0013 26.5184 29.9498 26.7611 29.8494C27.0039 29.7489 27.2245 29.6017 27.4103 29.4159C27.5961 29.2302 27.7434 29.0096 27.8439 28.7669C27.9444 28.5242 27.996 28.264 27.9959 28.0013H27.9995C27.9998 27.7386 27.9483 27.4784 27.848 27.2357C27.7476 26.9929 27.6004 26.7723 27.4147 26.5865C27.229 26.4007 27.0085 26.2533 26.7658 26.1528C26.5231 26.0523 26.2629 26.0007 26.0003 26.0009H22C18.6874 26.0009 16 23.3134 16 20.0008C16 16.684 18.6874 14.0008 22 14.0008V10.0006H26.0003V14.0008C29.3123 14.0008 31.9997 16.6882 31.9997 20.0008H27.9995C27.9998 19.7381 27.9483 19.478 27.848 19.2352C27.7476 18.9924 27.6004 18.7718 27.4147 18.586C27.229 18.4002 27.0085 18.2529 26.7658 18.1524C26.5231 18.0519 26.2629 18.0003 26.0003 18.0004H21.9994V17.9968V18.001Z" fill="white"/>
</svg>
