<svg width="40" height="40" viewBox="0 0 40 40" fill="none" xmlns="http://www.w3.org/2000/svg">
<path d="M40 40V0H5.66667L0 5.16667V40H40Z" fill="white"/>
<path d="M25.1823 19.7053L16.5934 14.0647C16.5148 14.021 16.426 13.9987 16.3359 14.0001C16.2459 14.0016 16.1579 14.0267 16.0807 14.0729C16.0049 14.1188 15.9423 14.1836 15.899 14.2609C15.8556 14.3381 15.8331 14.4253 15.8335 14.5139V25.795C15.8336 25.8841 15.857 25.9716 15.9012 26.0489C15.9454 26.1262 16.0091 26.1907 16.0858 26.236C16.1645 26.2832 16.2545 26.308 16.3463 26.3078C16.4327 26.3077 16.5177 26.2859 16.5934 26.2442L25.1823 20.6036C25.2627 20.5594 25.3297 20.4943 25.3764 20.4153C25.4231 20.3363 25.4477 20.2462 25.4477 20.1544C25.4477 20.0627 25.4231 19.9726 25.3764 19.8936C25.3297 19.8146 25.2627 19.7495 25.1823 19.7053Z" fill="#161728"/>
</svg>
