<svg width="28" height="22" viewBox="0 0 28 22" fill="none" xmlns="http://www.w3.org/2000/svg">
    <g opacity="0.2">
        <path d="M1.4472 12.418C1.15612 12.0019 1 11.5063 1 10.9984C1 10.4906 1.15612 9.995 1.4472 9.57884C3.3348 6.90644 7.9824 1.39844 14.1996 1.39844C20.4168 1.39844 25.0644 6.90644 26.952 9.57884C27.2431 9.995 27.3992 10.4906 27.3992 10.9984C27.3992 11.5063 27.2431 12.0019 26.952 12.418C25.0644 15.0904 20.4168 20.5984 14.1996 20.5984C7.9824 20.5984 3.3348 15.0904 1.4472 12.418Z" stroke="white" stroke-miterlimit="10" stroke-linecap="square"/>
        <path d="M14.2023 15.7992C16.8533 15.7992 19.0023 13.6502 19.0023 10.9992C19.0023 8.34825 16.8533 6.19922 14.2023 6.19922C11.5514 6.19922 9.40234 8.34825 9.40234 10.9992C9.40234 13.6502 11.5514 15.7992 14.2023 15.7992Z" stroke="white" stroke-miterlimit="10" stroke-linecap="square"/>
    </g>
</svg>
