<svg width="34" height="37" viewBox="0 0 34 37" fill="none" xmlns="http://www.w3.org/2000/svg">
<path d="M33.0463 17.1156L2.27981 0.194017C2.0438 0.0627233 1.77739 -0.00412367 1.50735 0.000196915C1.23732 0.0045175 0.973177 0.0798534 0.741489 0.21863C0.51414 0.356305 0.326339 0.550535 0.196393 0.782388C0.0664477 1.01424 -0.00120968 1.27581 1.63715e-05 1.54159V35.3847C0.000379211 35.652 0.0703663 35.9146 0.203082 36.1465C0.335798 36.3785 0.526663 36.5719 0.756872 36.7077C0.992877 36.8493 1.2631 36.9238 1.53834 36.9231C1.79762 36.923 2.05268 36.8574 2.27981 36.7323L33.0463 19.8107C33.2875 19.6779 33.4886 19.4829 33.6287 19.2458C33.7688 19.0088 33.8427 18.7385 33.8427 18.4632C33.8427 18.1878 33.7688 17.9176 33.6287 17.6805C33.4886 17.4435 33.2875 17.2484 33.0463 17.1156Z" fill="white"/>
</svg>
