<svg width="40" height="40" viewBox="0 0 40 40" fill="none" xmlns="http://www.w3.org/2000/svg">
<path d="M40 40V0H5.66667L0 5.16667V40H40Z" fill="white"/>
<path d="M14.432 19.7053L23.0208 14.0647C23.0995 14.021 23.1883 13.9987 23.2783 14.0001C23.3683 14.0016 23.4564 14.0267 23.5336 14.0729C23.6094 14.1188 23.672 14.1836 23.7153 14.2609C23.7586 14.3381 23.7812 14.4253 23.7808 14.5139V25.795C23.7806 25.8841 23.7573 25.9716 23.7131 26.0489C23.6688 26.1262 23.6052 26.1907 23.5285 26.236C23.4498 26.2832 23.3597 26.308 23.268 26.3078C23.1816 26.3077 23.0965 26.2859 23.0208 26.2442L14.432 20.6036C14.3516 20.5594 14.2846 20.4943 14.2379 20.4153C14.1912 20.3363 14.1665 20.2462 14.1665 20.1544C14.1665 20.0627 14.1912 19.9726 14.2379 19.8936C14.2846 19.8146 14.3516 19.7495 14.432 19.7053Z" fill="#161728"/>
</svg>
