<svg width="21" height="17" viewBox="0 0 21 17" fill="none" xmlns="http://www.w3.org/2000/svg">
<path d="M20.25 1.9585C19.5 2.3335 18.75 2.4585 17.875 2.5835C18.75 2.0835 19.375 1.3335 19.625 0.333496C18.875 0.833496 18 1.0835 17 1.3335C16.25 0.583496 15.125 0.0834961 14 0.0834961C11.375 0.0834961 9.375 2.5835 10 5.0835C6.625 4.9585 3.625 3.3335 1.5 0.833497C0.375 2.7085 1 5.0835 2.75 6.3335C2.125 6.3335 1.5 6.0835 0.875 5.8335C0.875 7.7085 2.25 9.4585 4.125 9.9585C3.5 10.0835 2.875 10.2085 2.25 10.0835C2.75 11.7085 4.25 12.9585 6.125 12.9585C4.625 14.0835 2.375 14.7085 0.25 14.4585C2.125 15.5835 4.25 16.3335 6.5 16.3335C14.125 16.3335 18.375 9.9585 18.125 4.0835C19 3.5835 19.75 2.8335 20.25 1.9585Z" fill="white"/>
</svg>
