<svg width="26" height="20" viewBox="0 0 26 20" fill="none" xmlns="http://www.w3.org/2000/svg">
    <g clip-path="url(#clip0_837_921)">
        <path d="M21.5199 1.95776C19.8997 1.21432 18.1622 0.666588 16.3456 0.352878C16.3125 0.346824 16.2795 0.361954 16.2624 0.392216C16.039 0.789647 15.7914 1.30813 15.6181 1.71565C13.6642 1.42313 11.7203 1.42313 9.80648 1.71565C9.63312 1.29907 9.37662 0.789647 9.15216 0.392216C9.13512 0.362964 9.10207 0.347834 9.06899 0.352878C7.25336 0.665585 5.51589 1.21332 3.89464 1.95776C3.8806 1.96381 3.86857 1.97391 3.86059 1.98701C0.564972 6.91059 -0.337834 11.7132 0.105052 16.4562C0.107056 16.4794 0.120082 16.5016 0.138119 16.5157C2.31247 18.1125 4.4187 19.0819 6.48582 19.7244C6.51891 19.7345 6.55396 19.7224 6.57501 19.6952C7.06399 19.0274 7.49987 18.3233 7.87359 17.5829C7.89565 17.5395 7.8746 17.4881 7.82952 17.4709C7.13814 17.2087 6.47981 16.8889 5.84654 16.5258C5.79645 16.4965 5.79244 16.4249 5.83852 16.3906C5.97178 16.2907 6.10508 16.1868 6.23233 16.0819C6.25535 16.0628 6.28743 16.0587 6.3145 16.0708C10.4748 17.9703 14.9788 17.9703 19.09 16.0708C19.1171 16.0577 19.1492 16.0618 19.1732 16.0809C19.3005 16.1858 19.4338 16.2907 19.568 16.3906C19.6141 16.4249 19.6111 16.4965 19.561 16.5258C18.9277 16.896 18.2694 17.2087 17.577 17.4699C17.532 17.4871 17.5119 17.5395 17.534 17.5829C17.9157 18.3223 18.3516 19.0264 18.8315 19.6942C18.8516 19.7224 18.8876 19.7345 18.9207 19.7244C20.9979 19.0819 23.1041 18.1125 25.2784 16.5157C25.2975 16.5016 25.3095 16.4804 25.3115 16.4572C25.8416 10.9737 24.4237 6.21055 21.553 1.98801C21.546 1.97391 21.534 1.96381 21.5199 1.95776ZM8.49487 13.5682C7.24233 13.5682 6.21027 12.4182 6.21027 11.006C6.21027 9.59379 7.22231 8.44387 8.49487 8.44387C9.77741 8.44387 10.7995 9.60389 10.7794 11.006C10.7794 12.4182 9.76738 13.5682 8.49487 13.5682ZM16.9418 13.5682C15.6893 13.5682 14.6572 12.4182 14.6572 11.006C14.6572 9.59379 15.6692 8.44387 16.9418 8.44387C18.2243 8.44387 19.2464 9.60389 19.2264 11.006C19.2264 12.4182 18.2243 13.5682 16.9418 13.5682Z" fill="#5468ED"/>
    </g>
    <defs>
        <clipPath id="clip0_837_921">
            <rect width="25.421" height="19.6923" fill="white" transform="translate(0 0.205078)"/>
        </clipPath>
    </defs>
</svg>
