<svg width="48" height="48" viewBox="0 0 48 48" fill="none" xmlns="http://www.w3.org/2000/svg">
<path d="M36.273 19.5H11.727C5.2605 19.5 0 24.8835 0 31.5C0 38.1165 5.2605 43.5 11.727 43.5C16.131 43.5 19.959 41.226 21.9435 37.5H26.055C28.0395 41.226 31.8675 43.5 36.2715 43.5C42.7395 43.5 48 38.1165 48 31.5C48 24.8835 42.7395 19.5 36.273 19.5ZM16.5 33H13.5V36H10.5V33H7.5V30H10.5V27H13.5V30H16.5V33ZM34.5 36C33.672 36 33 35.328 33 34.5C33 33.672 33.672 33 34.5 33C35.328 33 36 33.672 36 34.5C36 35.328 35.328 36 34.5 36ZM39 31.5C38.172 31.5 37.5 30.828 37.5 30C37.5 29.172 38.172 28.5 39 28.5C39.828 28.5 40.5 29.172 40.5 30C40.5 30.828 39.828 31.5 39 31.5Z" fill="#BA8926"/>
<path d="M25.5 3C25.5 2.172 24.828 1.5 24 1.5C23.172 1.5 22.5 2.172 22.5 3V16.5H25.5V3Z" fill="#BA8926"/>
</svg>
