<svg width="46" height="44" viewBox="0 0 46 44" fill="none" xmlns="http://www.w3.org/2000/svg">
<g clip-path="url(#clip0_1_1065)">
<path d="M44.0511 0H1.94895C0.872573 0 0 0.872574 0 1.94895V42.0335C0 43.1099 0.872573 43.9825 1.94895 43.9825H44.0511C45.1274 43.9825 46 43.1099 46 42.0335V1.94895C46 0.872574 45.1274 0 44.0511 0Z" fill="#BA8926"/>
<path d="M29.6576 25.8249C31.7746 25.8249 33.4909 24.1086 33.4909 21.9915C33.4909 19.8744 31.7746 18.1582 29.6576 18.1582C27.5405 18.1582 25.8242 19.8744 25.8242 21.9915C25.8242 24.1086 27.5405 25.8249 29.6576 25.8249Z" fill="black"/>
<path d="M38.8587 6.45605H7.14295C6.92892 6.45605 6.72364 6.54109 6.57229 6.69244C6.42095 6.84378 6.33594 7.04904 6.33594 7.26307V36.7434C6.33594 36.9575 6.42095 37.1627 6.57229 37.3141C6.72364 37.4654 6.92892 37.5504 7.14295 37.5504H38.8587C39.0728 37.5504 39.278 37.4654 39.4294 37.3141C39.5807 37.1627 39.6657 36.9575 39.6657 36.7434V7.25096C39.6626 7.03903 39.5762 6.83686 39.4252 6.68813C39.2742 6.53939 39.0707 6.45603 38.8587 6.45605ZM37.5272 35.5087H8.47453V31.4736H11.2991C11.6201 31.4736 11.9281 31.3461 12.1551 31.119C12.3821 30.892 12.5096 30.5841 12.5096 30.2631V25.0336C12.5096 24.7125 12.3821 24.4047 12.1551 24.1776C11.9281 23.9506 11.6201 23.8231 11.2991 23.8231H8.47453V20.1915H11.2991C11.6201 20.1915 11.9281 20.064 12.1551 19.8369C12.3821 19.6099 12.5096 19.302 12.5096 18.981V13.7353C12.5096 13.4143 12.3821 13.1064 12.1551 12.8794C11.9281 12.6524 11.6201 12.5248 11.2991 12.5248H8.47453V8.48973H37.5272V35.5087Z" fill="black"/>
</g>
<defs>
<clipPath id="clip0_1_1065">
<rect width="46" height="43.9825" fill="white"/>
</clipPath>
</defs>
</svg>
