<svg width="48" height="48" viewBox="0 0 48 48" fill="none" xmlns="http://www.w3.org/2000/svg">
<g clip-path="url(#clip0_1_773)">
<path d="M10.5 30.0005V7.50049C10.5 6.67099 11.172 6.00049 12 6.00049H36C36.828 6.00049 37.5 6.67099 37.5 7.50049V15.0005H43.5V4.50049C43.5 2.01949 41.481 0.000488281 39 0.000488281H4.5C2.019 0.000488281 0 2.01949 0 4.50049V33.0005C0 35.4815 2.019 37.5005 4.5 37.5005H25.5V31.5005H12C11.172 31.5005 10.5 30.83 10.5 30.0005ZM5.25 21.0005C4.008 21.0005 3 19.9925 3 18.7505C3 17.5085 4.008 16.5005 5.25 16.5005C6.492 16.5005 7.5 17.5085 7.5 18.7505C7.5 19.9925 6.492 21.0005 5.25 21.0005Z" fill="white"/>
<path d="M45 18.0005H31.5C29.8425 18.0005 28.5 19.343 28.5 21.0005V45.0005C28.5 46.658 29.8425 48.0005 31.5 48.0005H45C46.6575 48.0005 48 46.658 48 45.0005V21.0005C48 19.343 46.6575 18.0005 45 18.0005ZM38.25 45.0005C37.008 45.0005 36 43.9925 36 42.7505C36 41.5085 37.008 40.5005 38.25 40.5005C39.492 40.5005 40.5 41.5085 40.5 42.7505C40.5 43.9925 39.492 45.0005 38.25 45.0005ZM43.5 37.5005H33C32.172 37.5005 31.5 36.8285 31.5 36.0005V22.5005C31.5 21.6725 32.172 21.0005 33 21.0005H43.5C44.328 21.0005 45 21.6725 45 22.5005V36.0005C45 36.8285 44.328 37.5005 43.5 37.5005Z" fill="white"/>
</g>
<defs>
<clipPath id="clip0_1_773">
<rect width="48" height="48" fill="white" transform="translate(0 0.000488281)"/>
</clipPath>
</defs>
</svg>
