<svg width="15" height="17" viewBox="0 0 15 17" fill="none" xmlns="http://www.w3.org/2000/svg">
    <path d="M4.7334 7.33333L10.6001 4" stroke="#BA8926" stroke-miterlimit="10"/>
    <path d="M4.7334 9.33398L10.6001 12.6673" stroke="#BA8926" stroke-miterlimit="10"/>
    <path d="M3 10.334C4.10457 10.334 5 9.43855 5 8.33398C5 7.22941 4.10457 6.33398 3 6.33398C1.89543 6.33398 1 7.22941 1 8.33398C1 9.43855 1.89543 10.334 3 10.334Z" stroke="#BA8926" stroke-miterlimit="10" stroke-linecap="square"/>
    <path d="M12.3335 5C13.4381 5 14.3335 4.10457 14.3335 3C14.3335 1.89543 13.4381 1 12.3335 1C11.2289 1 10.3335 1.89543 10.3335 3C10.3335 4.10457 11.2289 5 12.3335 5Z" stroke="#BA8926" stroke-miterlimit="10" stroke-linecap="square"/>
    <path d="M12.3335 15.666C13.4381 15.666 14.3335 14.7706 14.3335 13.666C14.3335 12.5614 13.4381 11.666 12.3335 11.666C11.2289 11.666 10.3335 12.5614 10.3335 13.666C10.3335 14.7706 11.2289 15.666 12.3335 15.666Z" stroke="#BA8926" stroke-miterlimit="10" stroke-linecap="square"/>
</svg>
